HIERARCHY
ROOT Hips
{
  OFFSET 0.000000 0.000000 0.000000
  CHANNELS 6 Xposition Yposition Zposition Zrotation Xrotation Yrotation
  JOINT Spine
  {
    OFFSET 0.005049 0.081382 -0.018743
    CHANNELS 3 Zrotation Xrotation Yrotation
    JOINT Chest
    {
      OFFSET 0.006172 0.099467 -0.022908
      CHANNELS 3 Zrotation Xrotation Yrotation
      JOINT Neck
      {
        OFFSET 0.001594 0.013148 -0.016126
        CHANNELS 3 Zrotation Xrotation Yrotation
        JOINT Head
        {
          OFFSET 0.006706 0.048531 -0.051623
          CHANNELS 3 Zrotation Xrotation Yrotation
          End Site
          {
            OFFSET 0.001676 0.012133 -0.012906
          }
        }
      }
      JOINT LeftShoulder
      {
        OFFSET 0.058457 -0.000256 0.030249
        CHANNELS 3 Zrotation Xrotation Yrotation
        JOINT LeftArm
        {
          OFFSET 0.023104 -0.081868 -0.055197
          CHANNELS 3 Zrotation Xrotation Yrotation
          JOINT LeftForeArm
          {
            OFFSET 0.008469 -0.038338 -0.091959
            CHANNELS 3 Zrotation Xrotation Yrotation
            JOINT LeftHand
            {
              OFFSET 0.003988 -0.006813 -0.038551
              CHANNELS 3 Zrotation Xrotation Yrotation
              JOINT LeftHandEnd
              {
                OFFSET 0.019593 -0.002218 0.009863
                CHANNELS 3 Zrotation Xrotation Yrotation
                End Site
                {
                  OFFSET 0.004898 -0.000555 0.002466
                }
              }
            }
          }
        }
      }
      JOINT RightShoulder
      {
        OFFSET -0.058457 0.000256 -0.030249
        CHANNELS 3 Zrotation Xrotation Yrotation
        JOINT RightArm
        {
          OFFSET -0.011695 -0.075695 -0.071900
          CHANNELS 3 Zrotation Xrotation Yrotation
          JOINT RightForeArm
          {
            OFFSET 0.007981 -0.046526 -0.082476
            CHANNELS 3 Zrotation Xrotation Yrotation
            JOINT RightHand
            {
              OFFSET 0.010919 -0.008150 -0.030326
              CHANNELS 3 Zrotation Xrotation Yrotation
              JOINT RightHandEnd
              {
                OFFSET 0.024452 -0.003333 -0.003283
                CHANNELS 3 Zrotation Xrotation Yrotation
                End Site
                {
                  OFFSET 0.006113 -0.000833 -0.000821
                }
              }
            }
          }
        }
      }
    }
  }
  JOINT LeftUpLeg
  {
    OFFSET 0.034820 -0.013668 0.032821
    CHANNELS 3 Zrotation Xrotation Yrotation
    JOINT LeftLeg
    {
      OFFSET -0.025723 -0.030969 -0.132913
      CHANNELS 3 Zrotation Xrotation Yrotation
      JOINT LeftFoot
      {
        OFFSET -0.011062 -0.117471 -0.034516
        CHANNELS 3 Zrotation Xrotation Yrotation
        JOINT LeftToe
        {
          OFFSET -0.003304 -0.035913 -0.052284
          CHANNELS 3 Zrotation Xrotation Yrotation
          End Site
          {
            OFFSET -0.000826 -0.008978 -0.013071
          }
        }
      }
    }
  }
  JOINT RightUpLeg
  {
    OFFSET -0.036416 -0.012614 0.004827
    CHANNELS 3 Zrotation Xrotation Yrotation
    JOINT RightLeg
    {
      OFFSET 0.005070 -0.045724 -0.126799
      CHANNELS 3 Zrotation Xrotation Yrotation
      JOINT RightFoot
      {
        OFFSET 0.009583 -0.117456 -0.017324
        CHANNELS 3 Zrotation Xrotation Yrotation
        JOINT RightToe
        {
          OFFSET 0.014966 -0.030832 -0.048485
          CHANNELS 3 Zrotation Xrotation Yrotation
          End Site
          {
            OFFSET 0.003742 -0.007708 -0.012121
          }
        }
      }
    }
  }
}
MOTION
Frames: 9
Frame Time: 0.03333333
0.304053 0.038565 0.437087 -17.052086 50.414009 43.643051 -0.000000 -0.000000 0.000000 -0.000000 -0.000000 0.000000 18.437107 -8.626281 -13.851907 0.000000 -0.000000 0.000000 -28.915856 -39.879326 -43.495568 -2.746408 -18.038113 15.050536 2.823083 -8.557457 14.666857 -116.813690 32.350732 88.350056 123.524296 -44.383803 31.520788 -40.926946 -53.222553 -55.595119 353.772443 -14.619592 -351.114427 -4.170514 -3.070567 11.727650 4.395936 26.701538 52.272784 -351.857106 -14.752428 288.149245 -92.374798 -66.299036 -105.928524 -9.720013 53.787327 2.615236 -8.288092 14.444954 48.963325 -19.044802 -25.775719 -51.854027 -50.307003 -51.931185 -46.392061 19.856375 6.560303 -24.105252 -12.762689 15.475637 49.094713 -9.377797 -9.753534 -47.618795
0.301878 0.038700 0.435530 -15.548077 50.713741 38.878495 0.000000 -0.000000 0.000000 0.000000 -0.000000 0.000000 17.844692 -5.844688 -12.844915 -0.000000 0.000000 -0.000000 -26.980562 -42.158990 -39.723544 -1.768380 -18.925591 10.999429 2.620689 -5.789417 14.358990 -112.087347 28.735037 84.221823 120.361279 -46.509605 28.845070 -37.369905 -53.600608 -49.036660 354.148909 -14.240865 -350.810463 -4.357600 -4.958808 9.311523 1.707552 27.496865 18.763023 -342.558021 -8.306426 323.732850 -92.069531 -69.891810 -105.041385 -10.375669 53.653043 3.401078 -8.976080 15.138015 47.623094 -18.555349 -27.384742 -50.658586 -47.048028 -54.522574 -42.912649 14.883924 9.676076 -21.183060 -8.715269 13.598468 43.554824 -6.810539 -10.572636 -42.764103
0.299822 0.038694 0.434347 -14.101477 50.878172 34.728727 -0.000000 0.000000 0.000000 -0.000000 0.000000 0.000000 17.108518 -3.406873 -12.223422 -0.000000 0.000000 -0.000000 -24.910016 -43.870295 -36.173487 -0.835914 -20.269810 6.441463 2.045831 -3.795151 14.191269 -107.546281 23.204864 82.431375 117.923783 -49.523756 25.927755 -34.766534 -54.265303 -43.955948 354.019566 -12.165546 -349.203651 -4.067309 -6.469569 8.011979 1.588204 28.013573 -17.293736 -340.302958 1.786895 357.032635 -91.194594 -72.895220 -103.757023 -11.187502 53.478019 4.377835 -9.310716 15.818836 46.288738 -18.206733 -28.739423 -49.444765 -44.685429 -57.025316 -40.688508 10.341419 14.222420 -17.908737 -3.964156 9.946485 36.703707 -4.431799 -10.058974 -36.746759
0.297782 0.038526 0.433441 -12.914570 50.998372 31.303116 0.000000 -0.000000 -0.000000 0.000000 -0.000000 -0.000000 16.310492 -1.598801 -11.792718 0.000000 0.000000 0.000000 -22.793335 -45.219288 -32.988495 -0.123782 -21.723859 2.035624 1.263093 -2.933001 13.843208 -103.696950 17.061727 82.603551 115.587259 -52.501217 22.894587 -32.735945 -54.836349 -39.815925 353.748188 -9.482831 -347.311025 -3.461926 -7.508928 7.703623 1.474538 27.063424 -35.000055 -340.770259 6.354974 371.482927 -90.205986 -75.357211 -102.534621 -12.028960 53.353126 5.390863 -9.249388 16.460440 44.977424 -18.094368 -29.777883 -48.251896 -43.569755 -59.641795 -39.875823 6.622035 19.908117 -14.576616 0.116354 3.876341 29.390809 -1.734288 -7.919389 -30.113004
0.295612 0.038188 0.432674 -12.073434 51.124390 28.607687 0.000000 0.000000 -0.000000 0.000000 0.000000 -0.000000 15.537011 -0.499974 -11.441684 0.000000 0.000000 -0.000000 -20.676801 -46.471756 -30.302402 0.267362 -22.898504 -1.602879 0.486871 -3.270849 13.001589 -101.208344 11.211702 83.837648 113.826319 -54.308381 20.739437 -31.106551 -55.024638 -36.305199 353.659101 -7.146065 -345.932557 -2.675186 -7.882284 8.159935 0.483510 25.514204 -42.437738 -340.337916 8.008986 376.088921 -89.295426 -77.349282 -101.565804 -12.654544 53.194278 6.209662 -8.894914 17.060209 43.789520 -18.229875 -30.428406 -47.170812 -44.355043 -62.643821 -41.118202 3.817580 26.867052 -11.264709 2.641658 -4.472992 22.535565 1.228512 -4.211914 -23.865808
0.293186 0.037700 0.431928 -11.523961 51.270870 26.549848 -0.000000 -0.000000 0.000000 -0.000000 -0.000000 0.000000 14.816965 -0.080336 -11.095167 -0.000000 0.000000 -0.000000 -18.615982 -47.882780 -28.223543 0.299197 -23.243693 -3.815627 -0.117262 -4.234371 11.758532 -100.853384 6.823297 84.354082 113.486712 -53.927231 20.745851 -29.828506 -54.809347 -33.347831 353.871866 -5.549172 -345.327370 -1.791331 -7.528219 8.969079 -1.017481 23.706412 -45.658603 -339.481926 8.610870 377.066624 -88.349727 -78.924734 -100.736756 -12.929713 52.889599 6.742251 -8.416525 17.497935 42.861851 -18.484699 -30.588431 -46.292888 -47.932186 -66.084548 -45.372767 1.808943 34.769161 -7.982131 3.659539 -14.380984 16.715971 3.879738 1.096263 -18.855743
0.290453 0.037112 0.431151 -11.084275 51.421123 24.930572 0.000000 -0.000000 0.000000 0.000000 -0.000000 0.000000 14.108912 -0.224654 -10.699723 -0.000000 0.000000 -0.000000 -16.694840 -49.617868 -26.780426 -0.030964 -22.404225 -4.188385 -0.462154 -4.789480 10.817143 -102.709926 5.746216 82.318742 113.696148 -50.911356 22.643838 -28.829701 -54.279834 -30.876926 354.329890 -4.696920 -345.396208 -0.883990 -6.575462 9.757916 -3.076726 21.946818 -47.003321 -338.375789 8.939330 377.003018 -85.957845 -80.139569 -98.445967 -12.345141 52.203084 6.508502 -8.082593 17.771098 42.215623 -18.732091 -30.264744 -45.582887 -54.934876 -69.499910 -53.131370 0.498293 42.791853 -4.990573 4.075965 -24.720173 13.252170 5.393870 7.493303 -16.268082
0.287451 0.036493 0.430356 -10.487223 51.523409 23.440908 -0.000000 -0.000000 -0.000000 -0.000000 -0.000000 -0.000000 13.312155 -0.671981 -10.301855 0.000000 0.000000 0.000000 -15.013583 -51.653117 -25.845391 -0.661997 -20.851457 -3.236492 -0.578167 -4.202908 10.783681 -105.022929 8.680538 78.015384 112.181405 -46.389256 24.388171 -27.979388 -53.518154 -28.711329 354.886794 -4.340705 -345.849589 -0.068183 -5.399136 10.333782 -5.382639 20.439188 -48.164529 -337.292934 9.447450 377.441333 -79.394973 -81.021043 -91.569110 -10.261266 50.858630 4.841765 -8.178096 18.034337 41.595086 -18.812072 -29.690683 -44.745037 -64.667455 -72.196122 -63.351993 -0.148725 50.114733 -2.704805 6.707744 -33.910685 15.351573 4.592469 13.693770 -17.696857
0.284273 0.035912 0.429579 -9.552830 51.538760 21.820905 0.000000 -0.000000 0.000000 0.000000 -0.000000 0.000000 12.340933 -1.173159 -9.972902 0.000000 -0.000000 0.000000 -13.735769 -53.848647 -25.257082 -1.361018 -19.737513 -2.257872 -0.631999 -2.350874 11.591148 -105.580048 12.776073 73.919032 109.046700 -43.001409 24.673107 -27.166723 -52.614044 -26.669551 355.399126 -4.080366 -346.355902 0.495813 -4.578847 10.625595 -6.901125 19.083863 -50.896763 -337.162534 10.346877 379.725629 -67.428354 -81.407266 -78.583575 -6.795209 48.726075 1.792592 -8.825362 18.481190 40.520711 -18.480777 -29.271600 -43.296470 -74.731613 -73.929545 -73.402327 -0.170991 56.169540 -1.371365 15.279714 -39.739360 26.025085 0.432262 18.920496 -23.233921
